<?xml version="1.0" encoding="utf-8"?>
<!-- Svg Vector Icons : http://www.onlinewebfonts.com/icon -->
<!DOCTYPE svg PUBLIC "-//W3C//DTD SVG 1.1//EN" "http://www.w3.org/Graphics/SVG/1.1/DTD/svg11.dtd">
<svg version="1.1" xmlns="http://www.w3.org/2000/svg" xmlns:xlink="http://www.w3.org/1999/xlink" x="0px" y="0px" viewBox="0 0 1000 1000" enable-background="new 0 0 1000 1000" xml:space="preserve">
<metadata> Svg Vector Icons : http://www.onlinewebfonts.com/icon </metadata>
<g><g transform="translate(0.000000,511.000000) scale(0.100000,-0.100000)"><path d="M614.4,5032.8c-196.7-62.7-358.8-211.8-458.2-421.5l-56.2-121V545.5c0-3745.9,2.2-3949.1,38.9-4039.9c99.4-242.1,281-404.2,523.1-466.9c84.3-21.6,227-32.4,425.8-32.4c265.9,0,300.4-4.3,311.3-36.7c38.9-121,170.8-358.8,246.4-443.1c259.4-296.1,706.8-430.1,1091.6-330.7c356.7,92.9,672.2,389.1,769.5,717.6l25.9,92.9h1467.7c1234.2,0,1465.5-4.3,1465.5-30.3c0-15.1,38.9-105.9,86.5-201c276.7-553.3,920.8-767.3,1482.8-492.8c229.1,112.4,441,352.3,527.4,596.6l38.9,116.7l354.5,13c291.8,10.8,373.9,19.5,475.5,60.5c162.1,62.7,322.1,216.2,399.9,380.4l60.5,129.7l6.5,3912.4c4.3,4262.5,10.8,4026.9-112.4,4223.6c-69.2,108.1-216.2,235.6-335,291.8l-99.4,45.4l-4323.1,4.3C1513.6,5058.7,687.9,5054.4,614.4,5032.8z M8951.5,545.5v-3609.8l-3959.9,4.3l-3962.1,6.5L1025.1,513c0,1962.7,2.2,3583.8,8.7,3605.4c8.6,34.6,216.2,36.7,3964.2,36.7h3953.4V545.5z"/><path d="M1364.5,534.7V-2740h3631.4h3631.4V534.7v3274.7H4995.9H1364.5V534.7z M2903.5,2923.1c116.7-32.4,255.1-147,311.3-259.4c114.6-222.6,38.9-520.9-166.4-654.9l-105.9-69.2V530.3c0-1154.3,4.3-1411.5,28.1-1411.5c51.9,0,214-157.8,255.1-246.4c54-116.7,51.9-319.9,0-434.5c-84.3-181.6-259.4-291.8-466.9-291.8c-294,0-505.8,211.8-508,505.8c0,198.9,84.3,341.5,281,469.1l51.9,34.6V543.3l2.2,1387.7l-67,43.2c-177.2,108.1-265.9,261.5-268,458.2C2250.7,2774,2570.6,3013.9,2903.5,2923.1z M6299.3,2162.3c84.3-43.2,99.4-86.5,101.6-259.4c0-121,8.7-168.6,28.1-168.6c13,0,99.5-32.4,190.2-71.3l164.3-73.5l121,116.7c164.3,157.8,205.3,155.6,378.3-23.8c75.7-77.8,134-157.8,134-183.7c0-23.8-43.2-92.9-97.3-153.5c-114.6-129.7-118.9-172.9-45.4-369.6l51.9-138.3l177.2-10.8c233.4-15.1,259.4-43.2,259.4-281c0-237.8-25.9-265.9-259.4-281l-175.1-10.8l-75.7-192.4l-77.8-190.2l112.4-114.6c108.1-108.1,112.4-121.1,101.6-198.9c-10.8-62.7-41.1-110.2-131.9-194.5c-153.5-149.2-190.2-149.2-354.5,2.2L6777-515.8l-183.7-73.5l-181.6-73.5l-6.5-125.4c-6.5-185.9-19.5-220.5-97.3-265.9c-51.9-32.4-108.1-43.2-222.6-43.2c-205.3,0-229.1,25.9-242.1,265.9l-8.7,179.4l-138.3,47.6c-196.7,69.2-246.4,62.7-367.5-41.1c-88.6-75.7-112.4-86.5-177.3-75.7c-90.8,13-192.4,90.8-272.4,203.2c-71.3,105.9-62.7,131.8,99.4,298.3c103.8,105.9,105.9,114.6,75.7,162.1c-17.3,28.1-54,112.4-80,188.1l-49.7,134h-155.6c-125.4,0-168.6,8.6-214,45.4c-51.9,41.1-56.2,56.2-56.2,224.8c0,250.7,23.8,278.8,257.2,287.5l172.9,8.7l25.9,80c13,43.2,49.7,125.4,77.8,183.7l54,105.9l-121,121c-157.8,160-157.8,190.2,13,363.1c168.6,170.8,209.7,175.1,363.1,38.9c60.5-54,129.7-97.3,155.6-97.3c23.8,0,110.2,25.9,192.4,58.4l149.2,58.4v140.5c0,162.1,30.3,237.8,108.1,276.7C6013.9,2194.7,6236.6,2196.9,6299.3,2162.3z"/><path d="M5946.9,1196.1c-185.9-60.5-343.7-194.5-434.5-369.6c-41.1-80-51.9-129.7-51.9-281c0-157.8,8.7-201,60.5-306.9C5722.1-170,6282-262.9,6606.2,59.1c265.9,268,261.5,724.1-10.8,970.5c-138.3,125.4-248.6,170.8-432.3,177.2C6074.5,1211.2,5977.2,1206.9,5946.9,1196.1z"/></g></g>
</svg>